<svg width="16" height="18" viewBox="0 0 16 18" fill="none" xmlns="http://www.w3.org/2000/svg">
<path d="M6.425 7.5834V7.06346C6.24451 7.03488 6.06222 7.01923 5.87951 7.01661C4.11059 7.01283 2.54452 8.15916 2.01331 9.84642C1.4821 11.5337 2.10913 13.3704 3.56109 14.3807C3.02865 13.8108 2.67252 13.0991 2.53569 12.3313C2.39886 11.5635 2.48717 10.7726 2.78997 10.0539C3.09276 9.3352 3.5971 8.71951 4.2421 8.28115C4.8871 7.84278 5.6452 7.60047 6.42488 7.58346L6.425 7.5834Z" fill="#25F4EE"/>
<path d="M6.5231 13.473C7.51212 13.4716 8.32507 12.6925 8.36838 11.7044V2.88715H9.97917C9.9463 2.7029 9.93062 2.516 9.93232 2.32886L7.72907 2.32886V11.1376C7.69243 12.1307 6.87754 12.9174 5.8838 12.919C5.58683 12.9164 5.29471 12.8434 5.03149 12.7059C5.20209 12.9422 5.42613 13.1349 5.68535 13.2682C5.94456 13.4015 6.23162 13.4717 6.5231 13.473ZM12.9879 5.87875V5.38867C12.395 5.3889 11.8154 5.21397 11.3216 4.88584C11.7544 5.38902 12.3393 5.73756 12.9879 5.87875Z" fill="#25F4EE"/>
<path d="M11.3217 4.8858C10.8353 4.33194 10.5671 3.61994 10.5674 2.88281H9.97924C10.0552 3.29036 10.2134 3.67816 10.4442 4.02253C10.675 4.36691 10.9736 4.66064 11.3217 4.8858ZM5.87961 9.21984C5.46712 9.22194 5.06716 9.36188 4.74333 9.6174C4.41951 9.87292 4.19039 10.2294 4.09242 10.6301C3.99444 11.0307 4.03323 11.4527 4.20262 11.8288C4.372 12.2049 4.66226 12.5136 5.02724 12.7058C4.82769 12.4303 4.70819 12.105 4.68194 11.7658C4.65569 11.4266 4.72372 11.0867 4.87851 10.7838C5.0333 10.4808 5.26883 10.2266 5.55907 10.0491C5.8493 9.87162 6.18296 9.77782 6.52316 9.77808C6.70811 9.7805 6.89177 9.80929 7.06859 9.86357V7.62174C6.88802 7.59466 6.70575 7.58043 6.52316 7.57914H6.4251V9.28375C6.24734 9.23607 6.06358 9.21454 5.87961 9.21984Z" fill="#FE2C55"/>
<path d="M12.988 5.87866V7.58334C11.8905 7.5812 10.8215 7.23381 9.93243 6.59036V11.0693C9.92771 13.3043 8.11458 15.1136 5.87965 15.1136C5.0496 15.1151 4.23954 14.859 3.56122 14.3806C4.11435 14.9756 4.83383 15.3901 5.62594 15.5704C6.41804 15.7506 7.24606 15.6881 8.00214 15.391C8.75822 15.0939 9.40732 14.576 9.86487 13.9048C10.3224 13.2336 10.5672 12.4401 10.5674 11.6277V7.16146C11.4595 7.80067 12.5298 8.14352 13.6272 8.14163V5.94669C13.4124 5.94605 13.1982 5.92326 12.988 5.87866Z" fill="#FE2C55"/>
<path d="M9.93228 11.0694V6.59042C10.8241 7.23019 11.8946 7.57311 12.9921 7.57058V5.86597C12.3437 5.72904 11.7574 5.38503 11.3216 4.8858C10.9735 4.66064 10.6749 4.36691 10.4441 4.02253C10.2133 3.67816 10.0551 3.29036 9.97913 2.88281H8.36833V11.7045C8.35265 12.0885 8.21774 12.458 7.98235 12.7618C7.74696 13.0656 7.42278 13.2885 7.05487 13.3996C6.68696 13.5107 6.29359 13.5044 5.92942 13.3816C5.56525 13.2588 5.24838 13.0256 5.02284 12.7144C4.65779 12.5223 4.36747 12.2136 4.19804 11.8374C4.02861 11.4613 3.9898 11.0393 4.08778 10.6386C4.18577 10.2378 4.41491 9.88136 4.73879 9.62583C5.06266 9.3703 5.46267 9.23039 5.8752 9.22834C6.06022 9.23 6.24399 9.25872 6.42069 9.3136V7.60893C5.63681 7.62223 4.87374 7.86331 4.22451 8.30278C3.57528 8.74225 3.06794 9.36113 2.76435 10.084C2.46077 10.8068 2.37405 11.6023 2.51478 12.3736C2.6555 13.1448 3.01759 13.8585 3.55689 14.4275C4.24188 14.8901 5.05309 15.1298 5.87951 15.1136C8.11444 15.1136 9.92756 13.3043 9.93228 11.0694Z" fill="white"/>
</svg>
