<svg width="24" height="24" viewBox="0 0 24 24" fill="none" xmlns="http://www.w3.org/2000/svg">
<rect width="24" height="24" rx="12" fill="black"/>
<path d="M12 5.5C13.766 5.5 13.9864 5.5065 14.6793 5.539C15.3715 5.5715 15.8428 5.68005 16.2575 5.84125C16.6865 6.00635 17.0479 6.22995 17.4093 6.5907C17.7398 6.91563 17.9956 7.30868 18.1587 7.7425C18.3193 8.15655 18.4285 8.62845 18.461 9.3207C18.4915 10.0136 18.5 10.2339 18.5 12C18.5 13.766 18.4935 13.9864 18.461 14.6793C18.4285 15.3715 18.3193 15.8428 18.1587 16.2575C17.996 16.6916 17.7402 17.0847 17.4093 17.4093C17.0843 17.7397 16.6912 17.9954 16.2575 18.1587C15.8434 18.3193 15.3715 18.4285 14.6793 18.461C13.9864 18.4915 13.766 18.5 12 18.5C10.2339 18.5 10.0136 18.4935 9.3207 18.461C8.62845 18.4285 8.1572 18.3193 7.7425 18.1587C7.30851 17.9959 6.91539 17.7401 6.5907 17.4093C6.26011 17.0844 6.00436 16.6914 5.84125 16.2575C5.68005 15.8434 5.5715 15.3715 5.539 14.6793C5.50845 13.9864 5.5 13.766 5.5 12C5.5 10.2339 5.5065 10.0136 5.539 9.3207C5.5715 8.6278 5.68005 8.1572 5.84125 7.7425C6.0039 7.30842 6.25972 6.91526 6.5907 6.5907C6.91549 6.26 7.30858 6.00422 7.7425 5.84125C8.1572 5.68005 8.6278 5.5715 9.3207 5.539C10.0136 5.50845 10.2339 5.5 12 5.5ZM12 8.75C11.138 8.75 10.3114 9.09241 9.7019 9.7019C9.09241 10.3114 8.75 11.138 8.75 12C8.75 12.862 9.09241 13.6886 9.7019 14.2981C10.3114 14.9076 11.138 15.25 12 15.25C12.862 15.25 13.6886 14.9076 14.2981 14.2981C14.9076 13.6886 15.25 12.862 15.25 12C15.25 11.138 14.9076 10.3114 14.2981 9.7019C13.6886 9.09241 12.862 8.75 12 8.75ZM16.225 8.5875C16.225 8.37201 16.1394 8.16535 15.987 8.01298C15.8347 7.8606 15.628 7.775 15.4125 7.775C15.197 7.775 14.9903 7.8606 14.838 8.01298C14.6856 8.16535 14.6 8.37201 14.6 8.5875C14.6 8.80299 14.6856 9.00965 14.838 9.16202C14.9903 9.3144 15.197 9.4 15.4125 9.4C15.628 9.4 15.8347 9.3144 15.987 9.16202C16.1394 9.00965 16.225 8.80299 16.225 8.5875ZM12 10.05C12.5172 10.05 13.0132 10.2554 13.3789 10.6211C13.7446 10.9868 13.95 11.4828 13.95 12C13.95 12.5172 13.7446 13.0132 13.3789 13.3789C13.0132 13.7446 12.5172 13.95 12 13.95C11.4828 13.95 10.9868 13.7446 10.6211 13.3789C10.2554 13.0132 10.05 12.5172 10.05 12C10.05 11.4828 10.2554 10.9868 10.6211 10.6211C10.9868 10.2554 11.4828 10.05 12 10.05Z" fill="url(#paint0_radial_61_3953)"/>
<defs>
<radialGradient id="paint0_radial_61_3953" cx="0" cy="0" r="1" gradientUnits="userSpaceOnUse" gradientTransform="translate(6.34135 18.2152) scale(16.5052)">
<stop offset="0.09" stop-color="#FA8F21"/>
<stop offset="0.78" stop-color="#D82D7E"/>
</radialGradient>
</defs>
</svg>
