<svg width="20" height="20" viewBox="0 0 20 20" fill="none" xmlns="http://www.w3.org/2000/svg">
<path d="M10.0019 12.5C10.7895 12.5 11.4583 12.2243 12.0083 11.673C12.5583 11.1217 12.8333 10.4522 12.8333 9.66466C12.8333 8.87708 12.5576 8.20829 12.0063 7.65829C11.455 7.10829 10.7856 6.83329 9.99799 6.83329C9.21041 6.83329 8.54163 7.10895 7.99163 7.66026C7.44163 8.21156 7.16663 8.881 7.16663 9.66859C7.16663 10.4562 7.44228 11.125 7.99359 11.675C8.54489 12.225 9.21434 12.5 10.0019 12.5ZM9.99604 11.5333C9.47643 11.5333 9.03607 11.3514 8.67496 10.9877C8.31385 10.624 8.13329 10.1823 8.13329 9.66271C8.13329 9.1431 8.31515 8.70274 8.67888 8.34163C9.04261 7.98052 9.48428 7.79996 10.0039 7.79996C10.5235 7.79996 10.9638 7.98182 11.325 8.34554C11.6861 8.70928 11.8666 9.15094 11.8666 9.67054C11.8666 10.1902 11.6848 10.6305 11.321 10.9916C10.9573 11.3527 10.5156 11.5333 9.99604 11.5333ZM9.99996 14.6666C8.37774 14.6666 6.91107 14.2055 5.59996 13.2833C4.28885 12.3611 3.31107 11.1555 2.66663 9.66663C3.31107 8.17774 4.28885 6.97218 5.59996 6.04996C6.91107 5.12774 8.37774 4.66663 9.99996 4.66663C11.6222 4.66663 13.0888 5.12774 14.4 6.04996C15.7111 6.97218 16.6888 8.17774 17.3333 9.66663C16.6888 11.1555 15.7111 12.3611 14.4 13.2833C13.0888 14.2055 11.6222 14.6666 9.99996 14.6666ZM9.99714 13.6666C11.3435 13.6666 12.5805 13.3027 13.7083 12.575C14.8361 11.8472 15.6944 10.8777 16.2833 9.66663C15.6944 8.45552 14.837 7.48607 13.7111 6.75829C12.5852 6.03051 11.3491 5.66663 10.0028 5.66663C8.65645 5.66663 7.4194 6.03051 6.29163 6.75829C5.16385 7.48607 4.29996 8.45552 3.69996 9.66663C4.29996 10.8777 5.16291 11.8472 6.28881 12.575C7.41472 13.3027 8.65083 13.6666 9.99714 13.6666Z" fill="#767B8A"/>
</svg>
