<svg width="24" height="24" viewBox="0 0 24 24" fill="none" xmlns="http://www.w3.org/2000/svg">
<path d="M12 3.5C14.3095 3.5 14.5976 3.5085 15.5037 3.551C16.4089 3.5935 17.0252 3.73545 17.5675 3.94625C18.1285 4.16215 18.6011 4.45455 19.0737 4.9263C19.5059 5.35121 19.8404 5.8652 20.0538 6.4325C20.2637 6.97395 20.4065 7.59105 20.449 8.4963C20.489 9.4024 20.5 9.69055 20.5 12C20.5 14.3095 20.4915 14.5976 20.449 15.5037C20.4065 16.4089 20.2637 17.0252 20.0538 17.5675C19.841 18.1351 19.5065 18.6492 19.0737 19.0737C18.6487 19.5058 18.1347 19.8402 17.5675 20.0538C17.026 20.2637 16.4089 20.4065 15.5037 20.449C14.5976 20.489 14.3095 20.5 12 20.5C9.69055 20.5 9.4024 20.4915 8.4963 20.449C7.59105 20.4065 6.9748 20.2637 6.4325 20.0538C5.86498 19.8408 5.3509 19.5063 4.9263 19.0737C4.494 18.6489 4.15954 18.1348 3.94625 17.5675C3.73545 17.026 3.5935 16.4089 3.551 15.5037C3.51105 14.5976 3.5 14.3095 3.5 12C3.5 9.69055 3.5085 9.4024 3.551 8.4963C3.5935 7.5902 3.73545 6.9748 3.94625 6.4325C4.15895 5.86485 4.49348 5.35072 4.9263 4.9263C5.35102 4.49385 5.86506 4.15937 6.4325 3.94625C6.9748 3.73545 7.5902 3.5935 8.4963 3.551C9.4024 3.51105 9.69055 3.5 12 3.5ZM12 7.75C10.8728 7.75 9.79183 8.19777 8.9948 8.9948C8.19777 9.79183 7.75 10.8728 7.75 12C7.75 13.1272 8.19777 14.2082 8.9948 15.0052C9.79183 15.8022 10.8728 16.25 12 16.25C13.1272 16.25 14.2082 15.8022 15.0052 15.0052C15.8022 14.2082 16.25 13.1272 16.25 12C16.25 10.8728 15.8022 9.79183 15.0052 8.9948C14.2082 8.19777 13.1272 7.75 12 7.75ZM17.525 7.5375C17.525 7.25571 17.4131 6.98546 17.2138 6.7862C17.0145 6.58694 16.7443 6.475 16.4625 6.475C16.1807 6.475 15.9105 6.58694 15.7112 6.7862C15.5119 6.98546 15.4 7.25571 15.4 7.5375C15.4 7.81929 15.5119 8.08954 15.7112 8.2888C15.9105 8.48806 16.1807 8.6 16.4625 8.6C16.7443 8.6 17.0145 8.48806 17.2138 8.2888C17.4131 8.08954 17.525 7.81929 17.525 7.5375ZM12 9.45C12.6763 9.45 13.3249 9.71866 13.8031 10.1969C14.2813 10.6751 14.55 11.3237 14.55 12C14.55 12.6763 14.2813 13.3249 13.8031 13.8031C13.3249 14.2813 12.6763 14.55 12 14.55C11.3237 14.55 10.6751 14.2813 10.1969 13.8031C9.71866 13.3249 9.45 12.6763 9.45 12C9.45 11.3237 9.71866 10.6751 10.1969 10.1969C10.6751 9.71866 11.3237 9.45 12 9.45Z" fill="#767B8A"/>
</svg>
