<svg width="25" height="25" viewBox="0 0 25 25" fill="none" xmlns="http://www.w3.org/2000/svg">
<g clip-path="url(#clip0_61_2646)">
<path d="M9.01616 10.9659V10.2625C8.77197 10.2238 8.52534 10.2027 8.27815 10.1991C5.8849 10.194 3.7661 11.7449 3.0474 14.0277C2.32871 16.3104 3.17704 18.7954 5.14146 20.1622C4.4211 19.3913 3.93928 18.4283 3.75416 17.3896C3.56903 16.3508 3.68851 15.2807 4.09817 14.3084C4.50784 13.336 5.19018 12.503 6.06283 11.91C6.93548 11.3169 7.96113 10.989 9.016 10.966L9.01616 10.9659Z" fill="#25F4EE"/>
<path d="M9.14895 18.9342C10.487 18.9323 11.5869 17.8782 11.6455 16.5414V4.61215H13.8248C13.7803 4.36288 13.7591 4.11001 13.7614 3.85681L10.7806 3.85681V15.7746C10.731 17.1182 9.62848 18.1824 8.28401 18.1846C7.88223 18.1812 7.48701 18.0824 7.13089 17.8963C7.3617 18.2161 7.66481 18.4768 8.01551 18.6572C8.36622 18.8375 8.75459 18.9324 9.14895 18.9342ZM17.8954 8.65961V7.99656C17.0933 7.99687 16.3091 7.7602 15.6411 7.31626C16.2266 7.99703 17.018 8.46859 17.8954 8.65961Z" fill="#25F4EE"/>
<path d="M15.641 7.31625C14.9829 6.56691 14.6201 5.60361 14.6204 4.60632H13.8247C13.9275 5.15771 14.1415 5.68238 14.4538 6.1483C14.7661 6.61422 15.17 7.01162 15.641 7.31625ZM8.27815 13.18C7.72007 13.1828 7.17895 13.3721 6.74083 13.7178C6.30271 14.0635 5.99274 14.5458 5.86018 15.0879C5.72763 15.63 5.78011 16.2009 6.00927 16.7097C6.23844 17.2186 6.63114 17.6362 7.12495 17.8963C6.85496 17.5235 6.69328 17.0834 6.65777 16.6245C6.62226 16.1656 6.7143 15.7058 6.92372 15.2959C7.13315 14.886 7.4518 14.542 7.84447 14.3019C8.23715 14.0618 8.68856 13.9349 9.14883 13.9352C9.39906 13.9385 9.64754 13.9774 9.88677 14.0509V11.0178C9.64246 10.9812 9.39587 10.9619 9.14883 10.9602H9.01616V13.2664C8.77566 13.2019 8.52704 13.1728 8.27815 13.18Z" fill="#FE2C55"/>
<path d="M17.8953 8.65961V10.9659C16.4105 10.963 14.9642 10.493 13.7613 9.6225V15.6823C13.7549 18.706 11.3019 21.154 8.27815 21.154C7.15514 21.156 6.05918 20.8095 5.14145 20.1623C5.8898 20.9672 6.86322 21.5281 7.93489 21.7719C9.00657 22.0157 10.1268 21.9312 11.1498 21.5292C12.1727 21.1273 13.0509 20.4266 13.6699 19.5185C14.289 18.6104 14.6202 17.5368 14.6204 16.4378V10.3952C15.8273 11.26 17.2754 11.7238 18.7602 11.7213V8.75165C18.4695 8.75078 18.1797 8.71994 17.8953 8.65961Z" fill="#FE2C55"/>
<path d="M13.7613 15.6823V9.62249C14.9678 10.4881 16.4162 10.952 17.901 10.9486V8.64236C17.0238 8.4571 16.2306 7.99167 15.641 7.31625C15.17 7.01162 14.7661 6.61422 14.4538 6.1483C14.1415 5.68238 13.9275 5.15771 13.8247 4.60632H11.6454V16.5415C11.6242 17.061 11.4416 17.561 11.1232 17.9721C10.8047 18.3831 10.3661 18.6847 9.86835 18.8349C9.37058 18.9852 8.83837 18.9767 8.34568 18.8105C7.85298 18.6444 7.42427 18.3289 7.11912 17.9079C6.62523 17.6479 6.23245 17.2303 6.00322 16.7214C5.77399 16.2125 5.72149 15.6416 5.85405 15.0994C5.98661 14.5572 6.29663 14.0749 6.73482 13.7292C7.173 13.3835 7.71419 13.1942 8.27232 13.1915C8.52263 13.1937 8.77127 13.2325 9.01033 13.3068V11.0005C7.9498 11.0185 6.9174 11.3446 6.03903 11.9392C5.16066 12.5338 4.47426 13.3711 4.06353 14.349C3.65279 15.327 3.53547 16.4033 3.72587 17.4468C3.91626 18.4902 4.40614 19.4557 5.13579 20.2256C6.06254 20.8515 7.16005 21.1757 8.27815 21.1539C11.3019 21.1539 13.7549 18.706 13.7613 15.6823Z" fill="black"/>
</g>
<defs>
<clipPath id="clip0_61_2646">
<rect width="20.3426" height="23" fill="white" transform="translate(2.3287 1)"/>
</clipPath>
</defs>
</svg>
