<svg width="25" height="25" viewBox="0 0 25 25" fill="none" xmlns="http://www.w3.org/2000/svg">
<path d="M12.5 4C14.8095 4 15.0976 4.0085 16.0037 4.051C16.9089 4.0935 17.5252 4.23545 18.0675 4.44625C18.6285 4.66215 19.1011 4.95455 19.5737 5.4263C20.0059 5.85121 20.3404 6.3652 20.5538 6.9325C20.7637 7.47395 20.9065 8.09105 20.949 8.9963C20.989 9.9024 21 10.1906 21 12.5C21 14.8095 20.9915 15.0976 20.949 16.0037C20.9065 16.9089 20.7637 17.5252 20.5538 18.0675C20.341 18.6351 20.0065 19.1492 19.5737 19.5737C19.1487 20.0058 18.6347 20.3402 18.0675 20.5538C17.526 20.7637 16.9089 20.9065 16.0037 20.949C15.0976 20.989 14.8095 21 12.5 21C10.1906 21 9.9024 20.9915 8.9963 20.949C8.09105 20.9065 7.4748 20.7637 6.9325 20.5538C6.36498 20.3408 5.8509 20.0063 5.4263 19.5737C4.994 19.1489 4.65954 18.6348 4.44625 18.0675C4.23545 17.526 4.0935 16.9089 4.051 16.0037C4.01105 15.0976 4 14.8095 4 12.5C4 10.1906 4.0085 9.9024 4.051 8.9963C4.0935 8.0902 4.23545 7.4748 4.44625 6.9325C4.65895 6.36485 4.99348 5.85072 5.4263 5.4263C5.85102 4.99385 6.36506 4.65937 6.9325 4.44625C7.4748 4.23545 8.0902 4.0935 8.9963 4.051C9.9024 4.01105 10.1906 4 12.5 4ZM12.5 8.25C11.3728 8.25 10.2918 8.69777 9.4948 9.4948C8.69777 10.2918 8.25 11.3728 8.25 12.5C8.25 13.6272 8.69777 14.7082 9.4948 15.5052C10.2918 16.3022 11.3728 16.75 12.5 16.75C13.6272 16.75 14.7082 16.3022 15.5052 15.5052C16.3022 14.7082 16.75 13.6272 16.75 12.5C16.75 11.3728 16.3022 10.2918 15.5052 9.4948C14.7082 8.69777 13.6272 8.25 12.5 8.25ZM18.025 8.0375C18.025 7.75571 17.9131 7.48546 17.7138 7.2862C17.5145 7.08694 17.2443 6.975 16.9625 6.975C16.6807 6.975 16.4105 7.08694 16.2112 7.2862C16.0119 7.48546 15.9 7.75571 15.9 8.0375C15.9 8.31929 16.0119 8.58954 16.2112 8.7888C16.4105 8.98806 16.6807 9.1 16.9625 9.1C17.2443 9.1 17.5145 8.98806 17.7138 8.7888C17.9131 8.58954 18.025 8.31929 18.025 8.0375ZM12.5 9.95C13.1763 9.95 13.8249 10.2187 14.3031 10.6969C14.7813 11.1751 15.05 11.8237 15.05 12.5C15.05 13.1763 14.7813 13.8249 14.3031 14.3031C13.8249 14.7813 13.1763 15.05 12.5 15.05C11.8237 15.05 11.1751 14.7813 10.6969 14.3031C10.2187 13.8249 9.95 13.1763 9.95 12.5C9.95 11.8237 10.2187 11.1751 10.6969 10.6969C11.1751 10.2187 11.8237 9.95 12.5 9.95Z" fill="url(#paint0_radial_61_2594)"/>
<defs>
<radialGradient id="paint0_radial_61_2594" cx="0" cy="0" r="1" gradientUnits="userSpaceOnUse" gradientTransform="translate(5.10022 20.6276) scale(21.5837)">
<stop offset="0.09" stop-color="#FA8F21"/>
<stop offset="0.78" stop-color="#D82D7E"/>
</radialGradient>
</defs>
</svg>
