<svg width="38" height="18" viewBox="0 0 38 18" fill="none" xmlns="http://www.w3.org/2000/svg">
<path d="M10.566 3.966L3.546 12.804H10.764V15H0.342V12.984L7.398 4.128H0.9V1.95H10.566V3.966ZM14.4235 10.842C14.4835 11.622 14.7475 12.228 15.2155 12.66C15.6955 13.092 16.2475 13.308 16.8715 13.308C17.7835 13.308 18.4615 12.936 18.9055 12.192H21.4615C21.1615 13.032 20.6275 13.752 19.8595 14.352C19.0915 14.94 18.1015 15.234 16.8895 15.234C15.3775 15.234 14.1775 14.748 13.2895 13.776C12.4015 12.792 11.9575 11.574 11.9575 10.122C11.9575 8.67 12.4075 7.47 13.3075 6.522C14.2195 5.574 15.3895 5.1 16.8175 5.1C18.3055 5.1 19.4815 5.628 20.3455 6.684C21.2215 7.74 21.6295 9.126 21.5695 10.842H14.4235ZM14.4595 9.132H19.0495C19.0255 8.376 18.7915 7.818 18.3475 7.458C17.9155 7.098 17.3995 6.918 16.7995 6.918C16.2595 6.918 15.7555 7.104 15.2875 7.476C14.8315 7.836 14.5555 8.388 14.4595 9.132ZM26.1035 15H23.6195V1.95H26.1035V15ZM29.0145 4.776C29.0145 4.176 29.0805 3.69 29.2125 3.318C29.3565 2.934 29.5845 2.646 29.8965 2.454C30.2205 2.25 30.5865 2.118 30.9945 2.058C31.4025 1.986 31.9365 1.95 32.5965 1.95H33.4425V3.786H32.9565C32.3445 3.786 31.9485 3.852 31.7685 3.984C31.5885 4.104 31.4985 4.392 31.4985 4.848V5.316H33.4425V7.026H31.4985V15H29.0145V7.026H27.6465V5.316H29.0145V4.776ZM33.884 15V12.3H36.548V15H33.884Z" fill="black"/>
</svg>
