<svg width="20" height="20" viewBox="0 0 20 20" fill="none" xmlns="http://www.w3.org/2000/svg">
<path d="M5.99998 11.35H11.2166V10.35H5.99998V11.35ZM5.99998 9.18337H14V8.18337H5.99998V9.18337ZM5.99998 7.01671H14V6.01671H5.99998V7.01671ZM3.33331 16.6667V4.33337C3.33331 4.06671 3.43331 3.83337 3.63331 3.63337C3.83331 3.43337 4.06665 3.33337 4.33331 3.33337H15.6666C15.9333 3.33337 16.1666 3.43337 16.3666 3.63337C16.5666 3.83337 16.6666 4.06671 16.6666 4.33337V13C16.6666 13.2667 16.5666 13.5 16.3666 13.7C16.1666 13.9 15.9333 14 15.6666 14H5.99998L3.33331 16.6667ZM5.56665 13H15.6666V4.33337H4.33331V14.3334L5.56665 13Z" fill="#767B8A"/>
</svg>
