<svg width="16" height="16" viewBox="0 0 16 16" fill="none" xmlns="http://www.w3.org/2000/svg">
<path d="M11.9333 14H4.53332V5.46663L9.16665 0.666626L9.81665 1.18329C9.88332 1.23885 9.93332 1.31663 9.96665 1.41663C9.99998 1.51663 10.0167 1.63885 10.0167 1.78329V1.94996L9.26665 5.46663H14.25C14.5167 5.46663 14.75 5.56663 14.95 5.76663C15.15 5.96663 15.25 6.19996 15.25 6.46663V7.83061C15.25 7.91018 15.2583 7.99163 15.275 8.07496C15.2917 8.15829 15.2833 8.23885 15.25 8.31663L13.15 13.15C13.0513 13.3861 12.8869 13.5868 12.6567 13.752C12.4266 13.9173 12.1854 14 11.9333 14ZM5.53332 13H12.15L14.25 8.01663V6.46663H8.03332L8.91665 2.31663L5.53332 5.88329V13ZM4.53332 5.46663V6.46663H2.31665V13H4.53332V14H1.31665V5.46663H4.53332Z" fill="#767B8A"/>
</svg>
