<svg width="24" height="24" viewBox="0 0 24 24" fill="none" xmlns="http://www.w3.org/2000/svg">
<path d="M12.3792 3.27969C13.3245 3.26514 14.2625 3.27242 15.2006 3.26514C15.2583 4.37881 15.6552 5.51433 16.4634 6.30045C17.2716 7.10842 18.4117 7.47964 19.523 7.60338V10.5368C18.4839 10.5004 17.4376 10.282 16.4923 9.83074C16.081 9.64149 15.6985 9.40128 15.3233 9.1538C15.3161 11.2792 15.3305 13.4047 15.3089 15.5229C15.2511 16.5419 14.9192 17.5537 14.3347 18.3908C13.3894 19.7883 11.7514 20.6982 10.07 20.7273C9.03815 20.7855 8.00627 20.5017 7.12591 19.9776C5.66828 19.1114 4.64361 17.5246 4.49207 15.8213C4.47764 15.4574 4.47042 15.0934 4.48486 14.7367C4.61474 13.3537 5.29305 12.029 6.34659 11.1264C7.54444 10.0782 9.21855 9.57598 10.7844 9.87441C10.7989 10.9517 10.7556 12.029 10.7556 13.1063C10.0412 12.8733 9.20412 12.9388 8.57633 13.3756C8.12172 13.674 7.77535 14.1326 7.59495 14.6494C7.44342 15.0206 7.48671 15.4282 7.49393 15.8213C7.66711 17.0151 8.80724 18.0195 10.0195 17.9104C10.8277 17.9031 11.5998 17.43 12.0184 16.7385C12.1555 16.4982 12.307 16.2508 12.3142 15.9669C12.3864 14.664 12.3575 13.3683 12.3647 12.0654C12.3719 9.13196 12.3575 6.20583 12.3792 3.27969Z" fill="#767B8A"/>
</svg>
